name Walk9.mot
datacolumns 19
datarows 25
range 1.59600000 1.62000000
endheader

                time	   L_ground_force_vx	   L_ground_force_vy	   L_ground_force_vz	   L_ground_force_px	   L_ground_force_py	   L_ground_force_pz	   R_ground_force_vx	   R_ground_force_vy	   R_ground_force_vz	   R_ground_force_px	   R_ground_force_py	   R_ground_force_pz	   L_ground_torque_x	   L_ground_torque_y	   L_ground_torque_z	   R_ground_torque_x	   R_ground_torque_y	   R_ground_torque_z	
          1.59600000	         29.77547786	        946.55739116	         73.28271534	         -0.13864744	          0.00000000	         -0.05688628	          0.00000000	          0.00000000	          0.00000000	          0.00000000	          0.00000000	          0.00000000	          0.00000000	         -1.01039041	          0.00000000	          0.00000000	          0.00000000	          0.00000000	
          1.59700000	         30.58586047	        948.15906477	         73.36044756	         -0.13858860	          0.00000000	         -0.05686726	          0.00000000	          0.00000000	          0.00000000	          0.00000000	          0.00000000	          0.00000000	          0.00000000	         -1.01101135	          0.00000000	          0.00000000	          0.00000000	          0.00000000	
          1.59800000	         31.41998516	        949.63845560	         73.42147973	         -0.13848869	          0.00000000	         -0.05684121	          0.00000000	          0.00000000	          0.00000000	          0.00000000	          0.00000000	          0.00000000	          0.00000000	         -1.01657616	          0.00000000	          0.00000000	          0.00000000	          0.00000000	
          1.59900000	         32.25550723	        950.93246633	         73.50071979	         -0.13834669	          0.00000000	         -0.05682604	          0.00000000	          0.00000000	          0.00000000	          0.00000000	          0.00000000	          0.00000000	          0.00000000	         -1.02217787	          0.00000000	          0.00000000	          0.00000000	          0.00000000	
          1.60000000	         33.10275606	        952.10940279	         73.62550338	         -0.13819210	          0.00000000	         -0.05681724	          0.00000000	          0.00000000	          0.00000000	          0.00000000	          0.00000000	          0.00000000	          0.00000000	         -1.03060379	          0.00000000	          0.00000000	          0.00000000	          0.00000000	
          1.60100000	         33.98340707	        953.31774399	         73.79023766	         -0.13805625	          0.00000000	         -0.05680036	          0.00000000	          0.00000000	          0.00000000	          0.00000000	          0.00000000	          0.00000000	          0.00000000	         -1.04575018	          0.00000000	          0.00000000	          0.00000000	          0.00000000	
          1.60200000	         34.89656457	        954.66395908	         73.96673202	         -0.13794935	          0.00000000	         -0.05676813	          0.00000000	          0.00000000	          0.00000000	          0.00000000	          0.00000000	          0.00000000	          0.00000000	         -1.06609249	          0.00000000	          0.00000000	          0.00000000	          0.00000000	
          1.60300000	         35.83262615	        956.14252213	         74.13100474	         -0.13786413	          0.00000000	         -0.05672363	          0.00000000	          0.00000000	          0.00000000	          0.00000000	          0.00000000	          0.00000000	          0.00000000	         -1.08939245	          0.00000000	          0.00000000	          0.00000000	          0.00000000	
          1.60400000	         36.79986271	        957.67610452	         74.27104939	         -0.13778562	          0.00000000	         -0.05667837	          0.00000000	          0.00000000	          0.00000000	          0.00000000	          0.00000000	          0.00000000	          0.00000000	         -1.11678365	          0.00000000	          0.00000000	          0.00000000	          0.00000000	
          1.60500000	         37.81228798	        959.19888627	         74.38359039	         -0.13769793	          0.00000000	         -0.05665465	          0.00000000	          0.00000000	          0.00000000	          0.00000000	          0.00000000	          0.00000000	          0.00000000	         -1.14836728	          0.00000000	          0.00000000	          0.00000000	          0.00000000	
          1.60600000	         38.86472322	        960.69603232	         74.47209887	         -0.13759270	          0.00000000	         -0.05667404	          0.00000000	          0.00000000	          0.00000000	          0.00000000	          0.00000000	          0.00000000	          0.00000000	         -1.18135673	          0.00000000	          0.00000000	          0.00000000	          0.00000000	
          1.60700000	         39.93558610	        962.18828958	         74.53695406	         -0.13746995	          0.00000000	         -0.05674426	          0.00000000	          0.00000000	          0.00000000	          0.00000000	          0.00000000	          0.00000000	          0.00000000	         -1.21230824	          0.00000000	          0.00000000	          0.00000000	          0.00000000	
          1.60800000	         40.99177695	        963.70141047	         74.57370419	         -0.13733719	          0.00000000	         -0.05685933	          0.00000000	          0.00000000	          0.00000000	          0.00000000	          0.00000000	          0.00000000	          0.00000000	         -1.23478254	          0.00000000	          0.00000000	          0.00000000	          0.00000000	
          1.60900000	         41.98997057	        965.25429881	         74.59655667	         -0.13721367	          0.00000000	         -0.05699143	          0.00000000	          0.00000000	          0.00000000	          0.00000000	          0.00000000	          0.00000000	          0.00000000	         -1.24153323	          0.00000000	          0.00000000	          0.00000000	          0.00000000	
          1.61000000	         42.91313201	        966.84931018	         74.64723874	         -0.13712026	          0.00000000	         -0.05709070	          0.00000000	          0.00000000	          0.00000000	          0.00000000	          0.00000000	          0.00000000	          0.00000000	         -1.23625457	          0.00000000	          0.00000000	          0.00000000	          0.00000000	
          1.61100000	         43.80406224	        968.46832890	         74.75723667	         -0.13706285	          0.00000000	         -0.05711835	          0.00000000	          0.00000000	          0.00000000	          0.00000000	          0.00000000	          0.00000000	          0.00000000	         -1.23465166	          0.00000000	          0.00000000	          0.00000000	          0.00000000	
          1.61200000	         44.73209700	        970.10069212	         74.91724327	         -0.13703208	          0.00000000	         -0.05707356	          0.00000000	          0.00000000	          0.00000000	          0.00000000	          0.00000000	          0.00000000	          0.00000000	         -1.24864166	          0.00000000	          0.00000000	          0.00000000	          0.00000000	
          1.61300000	         45.73368242	        971.76447618	         75.10163678	         -0.13701059	          0.00000000	         -0.05698190	          0.00000000	          0.00000000	          0.00000000	          0.00000000	          0.00000000	          0.00000000	          0.00000000	         -1.27751589	          0.00000000	          0.00000000	          0.00000000	          0.00000000	
          1.61400000	         46.80597597	        973.48193787	         75.29544563	         -0.13697817	          0.00000000	         -0.05687609	          0.00000000	          0.00000000	          0.00000000	          0.00000000	          0.00000000	          0.00000000	          0.00000000	         -1.31530466	          0.00000000	          0.00000000	          0.00000000	          0.00000000	
          1.61500000	         47.93672889	        975.23684956	         75.47750050	         -0.13691820	          0.00000000	         -0.05678826	          0.00000000	          0.00000000	          0.00000000	          0.00000000	          0.00000000	          0.00000000	          0.00000000	         -1.35598706	          0.00000000	          0.00000000	          0.00000000	          0.00000000	
          1.61600000	         49.11119410	        976.97543613	         75.60740632	         -0.13682518	          0.00000000	         -0.05673874	          0.00000000	          0.00000000	          0.00000000	          0.00000000	          0.00000000	          0.00000000	          0.00000000	         -1.39169635	          0.00000000	          0.00000000	          0.00000000	          0.00000000	
          1.61700000	         50.31166425	        978.65804809	         75.65575232	         -0.13670892	          0.00000000	         -0.05673156	          0.00000000	          0.00000000	          0.00000000	          0.00000000	          0.00000000	          0.00000000	          0.00000000	         -1.41528777	          0.00000000	          0.00000000	          0.00000000	          0.00000000	
          1.61800000	         51.52452225	        980.29416613	         75.63402902	         -0.13658810	          0.00000000	         -0.05676821	          0.00000000	          0.00000000	          0.00000000	          0.00000000	          0.00000000	          0.00000000	          0.00000000	         -1.42408891	          0.00000000	          0.00000000	          0.00000000	          0.00000000	
          1.61900000	         52.73327744	        981.92281160	         75.58688251	         -0.13647674	          0.00000000	         -0.05684801	          0.00000000	          0.00000000	          0.00000000	          0.00000000	          0.00000000	          0.00000000	          0.00000000	         -1.41922423	          0.00000000	          0.00000000	          0.00000000	          0.00000000	
          1.62000000	         53.92100432	        983.57850606	         75.57272224	         -0.13637989	          0.00000000	         -0.05694725	          0.00000000	          0.00000000	          0.00000000	          0.00000000	          0.00000000	          0.00000000	          0.00000000	         -1.40813260	          0.00000000	          0.00000000	          0.00000000	          0.00000000	
